<?xml version="1.0" encoding="utf-8"?>
<!-- Generator: Adobe Illustrator 26.5.0, SVG Export Plug-In . SVG Version: 6.00 Build 0)  -->
<svg version="1.1" id="Capa_1" xmlns="http://www.w3.org/2000/svg" xmlns:xlink="http://www.w3.org/1999/xlink" x="0px" y="0px"
	 viewBox="0 0 100 100" style="enable-background:new 0 0 100 100;" xml:space="preserve">
<g id="控件">
	<g id="Nav_x2F_web" transform="translate(-80.000000, -20.000000)">
		<g id="Nav">
			<path id="logo" d="M94.7,61.6v6.8H88v-6.8h-3v17h3v-7h6.7v7h3v-17H94.7z M165.1,64.6h3.3c1.3,0,2.5,1.1,2.5,2.5
				c0,1.3-1.1,2.5-2.5,2.5h-3.3V64.6z M161.9,61.6v17h3V71l6.2,7.5h3.9l-5.2-6.1c2.6-0.8,4.1-3.4,3.8-6c-0.4-2.7-2.7-4.7-5.4-4.7
				h-6.5C161.9,61.6,161.9,61.6,161.9,61.6z M133.3,61.6v10.5l-7.4-10.5h-2.5v17h3V68l7.4,10.5h2.3v-17H133.3z M104.9,70
				c0-3,2.6-5.6,5.6-5.6c3.2,0,5.6,2.6,5.6,5.6c0,3-2.6,5.6-5.6,5.6c-1.5,0-2.9-0.6-4-1.6C105.3,73.1,104.9,71.5,104.9,70L104.9,70z
				 M101.8,70c0,3.5,2.1,6.6,5.4,8c3.3,1.3,7,0.6,9.4-1.9c2.5-2.5,3.2-6.2,1.9-9.4c-1.3-3.2-4.6-5.4-8.1-5.4
				C105.7,61.3,101.8,65.3,101.8,70L101.8,70z M143.4,70c0-3,2.6-5.6,5.6-5.6c3.2,0,5.6,2.6,5.6,5.6c0,3-2.6,5.6-5.6,5.6
				c-1.5,0-2.9-0.6-4-1.6C143.9,73.1,143.4,71.5,143.4,70L143.4,70z M140.5,70c0,3.5,2.1,6.6,5.4,8c3.3,1.4,7,0.6,9.4-1.9
				c2.5-2.5,3.2-6.2,1.9-9.4c-1.3-3.2-4.6-5.4-8.1-5.4C144.2,61.3,140.5,65.3,140.5,70L140.5,70z"/>
		</g>
	</g>
</g>
</svg>
