<?xml version="1.0" encoding="utf-8"?>
<!-- Generator: Adobe Illustrator 26.5.0, SVG Export Plug-In . SVG Version: 6.00 Build 0)  -->
<svg version="1.1" id="Capa_1" xmlns="http://www.w3.org/2000/svg" xmlns:xlink="http://www.w3.org/1999/xlink" x="0px" y="0px"
	 viewBox="0 0 100 100" style="enable-background:new 0 0 100 100;" xml:space="preserve">
<style type="text/css">
	.st0{opacity:0;}
	.st1{fill:none;}
	.st2{fill:none;stroke:#707070;stroke-width:1.1968;}
	.st3{fill:#232527;}
	.st4{fill:#CF0A2C;}
</style>
<g id="Grupo_7484" transform="translate(-260 -523)">
	<g id="Rectángulo_646" transform="translate(260 523)" class="st0">
		<rect x="0.4" y="36" class="st1" width="101.8" height="27.9"/>
		<rect x="0.1" y="36.6" class="st2" width="101.6" height="26.7"/>
	</g>
	<g id="Grupo_7479" transform="translate(-1.949 -1.223)">
		<path id="path4250" class="st3" d="M316.1,570v5.7c0,1.7-0.8,2.5-2.3,2.5c-1.4,0-2.3-0.8-2.3-2.5v-5.6h-2v5.7
			c0,2.8,1.5,4.3,4.2,4.3s4.2-1.7,4.2-4.4v-5.6L316.1,570z M323.4,570l-4.3,9.8h2.1l0.8-1.9l0.1-0.1h4.5l0.9,2.1h2.1l-4.3-9.8V570
			L323.4,570z M335.3,570l-2.3,6.8l-2.2-6.8h-2.2l3.4,9.8h1.7l2.3-6.5l2.3,6.5h1.7l3.4-9.8h-2.1l-2.2,6.8l-2.3-6.8H335.3z
			 M354.9,570v9.8h2V570H354.9z M298.3,570v9.8h2v-4h4.5v4h2V570h-2v4h-4.5v-4H298.3z M345,570v9.8h7.4v-1.8h-5.5v-2.5h3.6v-1.8
			h-3.6v-2.1h5.3V570L345,570L345,570z M324.2,572.5l1.4,3.3l0,0l0.1,0.2h-3l0.1-0.2l0,0L324.2,572.5z"/>
		<g id="Grupo_7478" transform="translate(268.949 527.223)">
			<path id="path4252" class="st4" d="M9.4,36.6c-0.3,0-1.3,0.2-1.3,0.2l0,0c-1.2,0.3-2.3,1.2-2.7,2.5c-0.1,0.3-0.1,0.6-0.2,0.9v0.5
				c0,0.4,0.1,0.8,0.2,1.1c0.7,3.2,4.2,8.4,5,9.5c0.1,0.1,0.1,0,0.1,0l0.1-0.1l0,0C11.9,39.7,9.4,36.6,9.4,36.6L9.4,36.6z
				 M13.3,36.6c0,0-2.4,3.1-1.2,14.7l0,0c0,0,0,0.1,0.1,0.1h0.1l0,0c0.8-1.1,4.2-6.3,5-9.5c0.2-0.8,0.2-1.8,0-2.6
				c-0.4-1.2-1.4-2.2-2.7-2.5C14.2,36.7,13.8,36.7,13.3,36.6L13.3,36.6z M2.2,40.1c-1.1,1-1.9,2.5-2.2,4l0,0v0.3c0,0,0,0,0,0.1
				c0.1,1,0.5,2,1.3,2.7c2,2,6.9,4.4,8,5h0.1l0,0v-0.1l0,0l0,0C7.6,47.8,5.2,43.9,2.2,40.1L2.2,40.1z M20.6,40.1
				c-2.9,3.6-5.4,7.6-7.3,11.9l0,0v0.1l0,0l0,0l0,0l0,0c1.1-0.6,6-3,8-5c0.8-0.7,1.2-1.7,1.3-2.7C22.8,42.2,20.6,40.1,20.6,40.1
				L20.6,40.1z M24.4,46.8c0,0-6.9,3.7-10.4,6.1l0,0c0,0-0.1,0.1,0,0.1c0,0,0,0.1,0.1,0.1l0,0c1.2,0,6.1,0,6.2,0
				c0.5,0,0.9-0.1,1.4-0.3c1.1-0.4,2.1-1.3,2.6-2.5c0.3-0.6,0.4-1.2,0.4-2l0,0C24.6,47.8,24.5,47.4,24.4,46.8L24.4,46.8z M-1.5,46.8
				c-0.4,1.1-0.3,2.4,0.2,3.5s1.4,2,2.6,2.5c0.5,0.2,1,0.3,1.5,0.3c0.1,0,4.8,0,6.1,0c0,0,0.1,0,0.1-0.1l0,0l0,0c0,0,0,0,0-0.1l0,0
				C5.3,50.6-1.5,46.8-1.5,46.8L-1.5,46.8z M8.7,53.8l-8.1,0.3c0.9,1.5,2.4,2.8,3.9,2.4c1.5-0.6,3-1.5,4.2-2.5l0,0
				c0.1-0.1,0-0.1,0-0.1C8.8,53.8,8.7,53.8,8.7,53.8L8.7,53.8z M14.1,53.8L14.1,53.8C14.1,53.8,14,53.8,14.1,53.8
				C14,53.9,14,53.9,14,54l0,0c1.3,1,2.8,1.9,4.2,2.5c0.1,0,0.3,0.1,0.4,0.1h0.2c0.7,0,2.1-0.4,3.3-2.5L14.1,53.8z"/>
		</g>
	</g>
</g>
</svg>
