<?xml version="1.0" encoding="utf-8"?>
<!-- Generator: Adobe Illustrator 26.5.0, SVG Export Plug-In . SVG Version: 6.00 Build 0)  -->
<svg version="1.1" id="Capa_1" xmlns="http://www.w3.org/2000/svg" xmlns:xlink="http://www.w3.org/1999/xlink" x="0px" y="0px"
	 viewBox="0 0 100 100" style="enable-background:new 0 0 100 100;" xml:space="preserve">
<style type="text/css">
	.st0{opacity:1.000000e-03;}
	.st1{fill:none;}
	.st2{fill:none;stroke:#707070;stroke-width:1.3105;}
</style>
<g id="Grupo_7471" transform="translate(-353 -525)">
	<g id="Rectángulo_674" transform="translate(353 525)" class="st0">
		<rect x="-6.3" y="34.9" class="st1" width="114.1" height="30.1"/>
		<rect x="-5.7" y="35.6" class="st2" width="112.7" height="28.9"/>
	</g>
	<g id="Grupo_7462" transform="translate(-2)">
		<path id="apple-black" d="M374.9,575.1c0,1.9,1.1,3.5,2.8,4.3c-0.3,1-0.8,2-1.5,3.1c-0.9,1.2-1.8,2.6-3.3,2.6s-1.9-0.8-3.5-0.8
			s-2.2,0.8-3.5,0.9c-1.4,0-2.5-1.4-3.4-2.7c-1.8-2.6-3.2-7.5-1.4-10.6c0.9-1.6,2.6-2.6,4.4-2.6c1.4,0,2.7,0.9,3.5,0.9
			s2.4-1.1,4.1-1c1.6,0,2.9,0.8,3.9,2.2C375.8,571.9,374.9,573.5,374.9,575.1 M372.3,567.3c0.8-0.9,1.2-2.2,1.1-3.4
			c-1.2,0.1-2.4,0.7-3.2,1.6c-0.8,0.9-1.2,2-1.1,3.3C370.4,568.8,371.5,568.2,372.3,567.3"/>
		<path id="iphone-logo-2016" d="M387.7,568c0.7-0.5,1.5-0.2,1.9,0.5c0.1,0.2,0.2,0.3,0.2,0.6c0,0.8-0.6,1.4-1.4,1.5
			c-0.2,0-0.5,0-0.7-0.1c-0.7-0.3-0.9-1.1-0.6-1.8C387.4,568.3,387.5,568.1,387.7,568z M392.2,567.9c2.6,0.1,5.2-0.3,7.7,0.2
			c3.6,1.1,4.3,6.7,1.2,8.8c-1.9,1.4-4.3,0.9-6.5,1c0,1.8,0,3.5,0,5.2h-2.4C392.2,578.2,392.2,573,392.2,567.9 M394.6,569.8
			c0,2,0,4.1,0,6.1c1.5,0.1,2.9,0,4.4-0.3c2.3-0.9,2.2-4.8-0.2-5.6C397.4,569.8,396.1,569.8,394.6,569.8L394.6,569.8z M404.7,567.9
			h2.3c0,2,0,4,0,6c1.2-1.9,3.9-2.5,5.8-1.4c1.1,0.7,1.7,1.9,1.7,3.3c0.1,2.5,0,5,0,7.5c-0.8,0-1.6,0-2.4,0
			c-0.1-2.5,0.1-5.1-0.1-7.6c-0.5-2.5-4.4-2.2-4.9,0.1c-0.2,2.5-0.2,5-0.1,7.5h-2.4C404.7,578.1,404.7,573,404.7,567.9L404.7,567.9z
			 M440.5,574.2c1.6-2.4,4.8-3.1,7.1-1.6c0.6,0.3,1,0.8,1.4,1.2c0.7,1.2,1,2.7,0.9,4.2c-2.7,0-5.3,0-8,0c0,0.9,0.5,1.8,1,2.5
			c1.4,1.1,3.3,0.9,4.4-0.5c0.1-0.1,0.2-0.2,0.3-0.5c0.7,0,1.5,0,2.2,0c-1,4.1-7.2,4.6-9.3,1.2C439.3,579.1,439.3,576.5,440.5,574.2
			 M441.9,576.6c1.9,0,3.9,0,5.7,0c0-1.6-1.2-2.7-2.8-2.8C443.3,573.9,442.1,575.1,441.9,576.6L441.9,576.6z M387.2,583.3
			c0-3.7,0-7.5,0-11.2h2.4c0,3.7,0,7.5,0,11.2H387.2z M419.3,572.3c2.3-0.9,5-0.2,6.5,1.7c1.2,2.2,1.4,4.8,0.2,7
			c-1.8,3.4-7.7,3.2-9.3-0.3C415.4,577.8,416.1,573.5,419.3,572.3 M420.5,574c-2.3,0.8-2.4,3.7-1.7,5.7c0.6,1.5,2.2,2.2,3.6,1.6
			c0.5-0.2,0.9-0.6,1.2-0.9c0.8-1.5,0.9-3.4,0.2-5C423.4,574.1,421.9,573.5,420.5,574L420.5,574z M428.4,572.1h2.3
			c0,0.6,0,1.2,0,1.8c1.2-1.9,3.6-2.5,5.7-1.5c1.1,0.7,1.9,2,1.8,3.4c0.1,2.5,0,5,0,7.5h-2.4c0-2.5,0.1-5-0.1-7.5
			c-0.1-2-3.1-2.4-4.2-1c-0.6,0.8-0.8,1.7-0.7,2.6c0,1.9,0,4,0,5.9h-2.4C428.4,579.5,428.4,575.8,428.4,572.1z"/>
	</g>
</g>
</svg>
