<?xml version="1.0" encoding="utf-8"?>
<!-- Generator: Adobe Illustrator 26.5.0, SVG Export Plug-In . SVG Version: 6.00 Build 0)  -->
<svg version="1.1" id="Capa_1" xmlns="http://www.w3.org/2000/svg" xmlns:xlink="http://www.w3.org/1999/xlink" x="0px" y="0px"
	 viewBox="0 0 100 100" style="enable-background:new 0 0 100 100;" xml:space="preserve">
<style type="text/css">
	.st0{opacity:0;}
	.st1{fill:none;}
	.st2{fill:none;stroke:#707070;stroke-width:1.1524;}
</style>
<g id="Grupo_7470" transform="translate(-450 -525)">
	<g id="Rectángulo_613" transform="translate(450 525)" class="st0">
		<rect x="-0.7" y="36.8" class="st1" width="100.3" height="26.5"/>
		<rect x="-0.1" y="37.4" class="st2" width="99.2" height="25.4"/>
	</g>
	<g id="Grupo_7457" transform="translate(421.957 520.96)">
		<g id="Grupo_7452" transform="translate(33.043 7.04)">
			<path id="Trazado_6231" d="M9.6,37.3c1.6-0.1,3.2,0.1,4.7,0.7c5.3,2.1,7.8,8.1,5.7,13.4S11.8,59.2,6.5,57
				c-2.8-1.1-4.9-3.4-5.9-6.2c-1.8-5.4,1-11.2,6.4-13.1C7.9,37.6,8.7,37.4,9.6,37.3L9.6,37.3z M3.4,52.7h0.7
				c0.2-0.7,0.4-1.5,0.7-2.2c0.2-0.6,0.5-1.2,0.9-1.7c0.3-0.4,0.6-0.7,1-0.9s1-0.2,1.4-0.1c0.6,0.3,1,0.7,1.3,1.3
				c0.4,0.6,0.7,1.3,1,2c0.4-1,0.9-1.9,1.6-2.7c0.2-0.3,0.5-0.5,0.9-0.6c0.5-0.2,1.1-0.1,1.5,0.2c0.6,0.4,1,0.9,1.3,1.5
				c0.5,1,0.8,2.1,1.1,3.2h0.7c-1.3-4.3-2.6-8.6-3.9-13c-1,3.3-2,6.5-3,9.8c0,0.1-0.1,0.2-0.1,0.4c-0.4-1.3-0.8-2.7-1.2-4
				c-0.6-2.1-1.2-4.1-1.9-6.2C6,44.2,4.7,48.4,3.4,52.7z"/>
		</g>
		<path id="Trazado_6232" d="M111.2,58.7c0-3.7,0-7.5,0-11.2h1.7v11.2H111.2z"/>
		<path id="Trazado_6233" d="M81.2,47.8h1.7v2.3h2.2c0,0.6,0,1.1,0,1.7h-2.2c0,1.3,0,2.6,0,3.9c0,0.9,0.7,1.6,1.6,1.7
			c0.2,0,0.4,0,0.6,0c0,0.6,0,1.1,0,1.7c-0.7,0-1.3-0.1-1.9-0.3c-1.2-0.6-2-1.8-2-3.1C81.2,53.1,81.2,50.5,81.2,47.8z"/>
		<g id="Grupo_7453" transform="translate(78.687 11.832)">
			<path id="Trazado_6234" d="M11.1,38.1c2.5-0.3,4.7,1.4,5.1,3.9c0.3,2.5-1.4,4.7-3.9,5.1c-2.5,0.3-4.7-1.4-5.1-3.9
				c-0.3-2.1,1-4.2,3.1-4.9C10.5,38.2,10.8,38.1,11.1,38.1z M11.1,39.8c-1,0.2-1.8,0.9-2.1,1.8c-0.5,1.5,0.2,3.1,1.7,3.6
				s3.1-0.2,3.6-1.7s-0.2-3.1-1.7-3.6C12.1,39.7,11.6,39.7,11.1,39.8z"/>
		</g>
		<path id="Trazado_6235" d="M98.8,49.9c0.5-0.1,1-0.1,1.5-0.1v1.7c-0.5,0-0.9,0-1.4,0.1c-0.7,0.3-1.3,1-1.3,1.8c0,1.8,0,3.6,0,5.4
			h-1.7c0-1.8,0-3.6,0-5.4c0-0.8,0.2-1.5,0.7-2.1C97.2,50.6,98,50.1,98.8,49.9z"/>
		<g id="Grupo_7454" transform="translate(91.882 11.832)">
			<path id="Trazado_6236" d="M13.1,38.1c2.5-0.3,4.8,1.4,5.1,3.9s-1.4,4.8-3.9,5.1s-4.8-1.4-5.1-3.9c-0.2-1.9,0.8-3.8,2.5-4.7
				C12.1,38.3,12.6,38.1,13.1,38.1z M13.1,39.8c-1,0.2-1.8,1-2.1,1.9c-0.5,1.5,0.4,3.1,1.9,3.5c1.5,0.5,3.1-0.4,3.5-1.9
				c0.5-1.5-0.4-3.1-1.9-3.5C14,39.7,13.5,39.7,13.1,39.8z"/>
		</g>
		<g id="Grupo_7455" transform="translate(103.187 11.832)">
			<path id="Trazado_6237" d="M13,38.7c2.1-1.3,4.9-0.7,6.2,1.5c0.3,0.5,0.5,1.1,0.6,1.7c0.1,0.4,0.1,0.9,0.1,1.3c0,1.3,0,2.5,0,3.8
				h-1.6c0-0.3,0-0.6,0-0.9c-1.9,1.6-4.8,1.4-6.4-0.6c-1.6-1.9-1.4-4.8,0.6-6.4C12.6,39,12.8,38.8,13,38.7L13,38.7z M14.8,39.8
				c-1.1,0.2-1.9,1.1-2.2,2.1c-0.4,1.5,0.6,3.1,2.1,3.4c1.5,0.4,3.1-0.6,3.4-2.1c0.4-1.5-0.6-3.1-2.1-3.4
				C15.6,39.7,15.2,39.7,14.8,39.8z"/>
		</g>
		<path id="Trazado_6238" d="M59.7,50.3c0.9-0.3,1.8-0.3,2.7,0.1c0.5,0.2,0.9,0.5,1.3,0.9c1.3-1.5,3.5-1.7,5-0.4
			c0.6,0.5,1,1.2,1.2,2c0.1,0.4,0.1,0.9,0.1,1.3c0,1.6,0,3.2,0,4.8h-1.7c0-1.8,0-3.6,0-5.4c0-1-0.8-1.8-1.9-1.8
			c-0.8,0-1.5,0.5-1.7,1.3c-0.2,0.3-0.2,0.6-0.2,0.9c0,1.7,0,3.4,0,5.1h-1.7c0-1.8,0-3.6,0-5.4c-0.1-1-0.9-1.8-1.9-1.7
			c-0.9,0-1.7,0.8-1.7,1.7c0,1.8,0,3.6,0,5.4h-1.7c0-1.8,0-3.6,0-5.4c0-0.7,0.2-1.3,0.6-1.9C58.4,51.1,59,50.6,59.7,50.3z"/>
		<g id="Grupo_7456" transform="translate(65.891 12.03)">
			<path id="Trazado_6239" d="M9.1,38.1c2.2-0.3,4.3,1.1,4.9,3.3c0.7,2.4-0.7,4.9-3.2,5.6c-2.4,0.7-4.9-0.7-5.6-3.2
				c-0.6-2.3,0.6-4.6,2.8-5.5C8.4,38.2,8.8,38.1,9.1,38.1z M9.1,39.8C7.9,40,7,41,6.8,42c-0.1,0.7,0,1.4,0.4,1.9
				C7.6,44.6,8.3,45,9,45.2c0.7,0.1,1.4,0,2-0.4s1.1-0.9,1.3-1.6c0.2-0.6,0.2-1.2,0-1.8c-0.3-0.7-0.8-1.3-1.5-1.6
				C10.3,39.8,9.7,39.7,9.1,39.8L9.1,39.8z"/>
		</g>
	</g>
</g>
</svg>
