<?xml version="1.0" encoding="utf-8"?>
<!-- Generator: Adobe Illustrator 26.5.0, SVG Export Plug-In . SVG Version: 6.00 Build 0)  -->
<svg version="1.1" id="Capa_1" xmlns="http://www.w3.org/2000/svg" xmlns:xlink="http://www.w3.org/1999/xlink" x="0px" y="0px"
	 viewBox="0 0 100 100" style="enable-background:new 0 0 100 100;" xml:space="preserve">
<style type="text/css">
	.st0{opacity:0;}
	.st1{fill:none;}
	.st2{fill:none;stroke:#707070;stroke-width:1.1276;}
	.st3{fill:#164193;}
</style>
<g id="Grupo_7473" transform="translate(-161 -525)">
	<g id="Rectángulo_607" transform="translate(161 525)" class="st0">
		<rect x="0.8" y="37" class="st1" width="98.1" height="26"/>
		<rect x="1.4" y="37.6" class="st2" width="97" height="24.8"/>
	</g>
	<g id="Grupo_7391" transform="translate(-40.298 169.739)">
		<path id="Trazado_6211" class="st3" d="M280.8,408.4l-0.2-10.1h3.1V411h-4.5l-3.1-10.4H276l0.2,10.4H273v-12.7h4.8L280.8,408.4
			L280.8,408.4"/>
		<path id="Trazado_6212" class="st3" d="M223.2,399.5l-1.8,11.6H218l2.3-12.8h5.7l2.3,12.8h-3.4L223.2,399.5L223.2,399.5"/>
		<path id="Trazado_6213" class="st3" d="M238.1,408.1l1.6-9.8h5.2l0.3,12.8H242l-0.1-11.5h-0.1l-2.1,11.5h-3.2l-2.1-11.5h-0.1
			l-0.1,11.5H231l0.3-12.8h5.2L238.1,408.1L238.1,408.1"/>
		<path id="Trazado_6214" class="st3" d="M264.8,409.2c0.6,0.1,1.1-0.3,1.3-0.9c0-0.2,0-0.3,0-0.5v-9.5h3.2v9.2c0,0.2,0,0.7,0,0.9
			c-0.2,2.3-2.1,3.1-4.5,3.1s-4.2-0.8-4.5-3.1c0-0.3,0-0.6,0-0.9v-9.2h3.2v9.5c0,0.2,0,0.3,0,0.5
			C263.8,408.8,264.3,409.3,264.8,409.2"/>
		<path id="Trazado_6215" class="st3" d="M212.5,407.5c0.1,0.3,0.1,0.7,0,1c-0.1,0.6-0.7,1-1.3,0.9c-0.6,0.1-1.2-0.4-1.3-1
			c0-0.1,0-0.1,0-0.2V407h-3.4v1c0,2.8,2.2,3.7,4.7,3.7c2.3,0,4.2-0.8,4.5-2.9c0.1-0.7,0.1-1.4,0-2.1c-0.6-2.7-5.4-3.5-5.8-5
			c-0.1-0.2-0.1-0.5,0-0.7c0.1-0.6,0.6-1,1.2-0.9c0.6-0.1,1.2,0.4,1.2,1c0,0.1,0,0.1,0,0.2v0.8h3.2v-0.9c0-2.8-2.5-3.2-4.3-3.2
			c-2.2,0-4.1,0.8-4.5,2.8c-0.1,0.6-0.1,1.2,0,1.8C207.4,405.1,212,405.9,212.5,407.5"/>
		<path id="Trazado_6216" class="st3" d="M254.1,407.5c0.1,0.3,0.1,0.6,0,1c-0.1,0.6-0.7,1-1.3,0.9c-0.6,0.1-1.2-0.4-1.3-1
			c0-0.1,0-0.1,0-0.2V407h-3.4v1c0,2.8,2.2,3.7,4.6,3.7c2.2,0,4.2-0.8,4.5-2.9c0.1-0.7,0.1-1.4,0-2c-0.5-2.6-5.4-3.4-5.7-4.9
			c0-0.2-0.1-0.4,0-0.7c0.1-0.6,0.6-0.9,1.2-0.9c0.6-0.1,1.1,0.4,1.2,1c0,0.1,0,0.1,0,0.2v0.8h3.1v-0.9c0-2.7-2.4-3.2-4.3-3.2
			c-2.2,0-4.1,0.8-4.4,2.8c-0.1,0.6-0.1,1.2,0,1.7C249,405.1,253.5,405.9,254.1,407.5"/>
		<path id="Trazado_6217" class="st3" d="M291.6,409.1c0.6,0.1,1.2-0.3,1.3-0.9c0-0.2,0-0.3,0-0.5v-1.9h-1.3V404h4.5v3.4
			c0,0.2,0,0.4,0,0.9c-0.2,2.3-2.2,3.1-4.5,3.1s-4.3-0.9-4.5-3.1c0-0.3-0.1-0.6-0.1-0.9V402c0-0.3,0-0.6,0.1-0.9
			c0.3-2.4,2.2-3.1,4.5-3.1c2.2,0,4.3,0.8,4.5,3.1c0,0.3,0,0.6,0,0.9v0.4h-3.2v-0.7c0-0.2,0-0.3,0-0.5c-0.1-0.6-0.7-1-1.3-0.9
			c-0.6-0.1-1.2,0.3-1.3,0.9c0,0.2-0.1,0.4,0,0.6v5.9c0,0.2,0,0.4,0,0.5C290.4,408.7,291,409.1,291.6,409.1"/>
	</g>
</g>
</svg>
