<?xml version="1.0" encoding="utf-8"?>
<!-- Generator: Adobe Illustrator 26.5.0, SVG Export Plug-In . SVG Version: 6.00 Build 0)  -->
<svg version="1.1" id="Capa_1" xmlns="http://www.w3.org/2000/svg" xmlns:xlink="http://www.w3.org/1999/xlink" x="0px" y="0px"
	 viewBox="0 0 100 100" style="enable-background:new 0 0 100 100;" xml:space="preserve">
<style type="text/css">
	.st0{fill-rule:evenodd;clip-rule:evenodd;fill:#0073FA;}
</style>
<g>
	<path class="st0" d="M71.2,41h-13v18H63V43.4h5.4c1.3,0,2.3,1.1,2.3,2.3v13.2h4.7V45.3C75.5,42.9,73.6,41,71.2,41"/>
	<path class="st0" d="M90.7,41h-8.9c-2.3,0-4.3,1.9-4.3,4.3v9.5c0,2.3,1.9,4.3,4.3,4.3h8.9c2.3,0,4.3-1.9,4.3-4.3v-9.5
		C94.9,42.9,93,41,90.7,41 M87.9,43.4c1.3,0,2.3,1.1,2.3,2.3V54c0,1.3-1.1,2.3-2.3,2.3h-3.1c-1.3,0-2.3-1.1-2.3-2.3v-8.3
		c0-1.3,1.1-2.3,2.3-2.3H87.9z"/>
	<path class="st0" d="M28.9,41h10.5v2.4h-7.5c-1.3,0-2.3,1.1-2.3,2.3v0.5c0,1.3,1.1,2.3,2.3,2.3h7.5V51h-10v3.2
		c0,1.3,1.1,2.3,2.3,2.3h7.6v2.4H28.9c-2.3,0-4.3-1.9-4.3-4.3v-9.5C24.6,42.9,26.5,41,28.9,41"/>
	<path class="st0" d="M45.7,41h10.5v2.4h-7.5c-1.3,0-2.3,1.1-2.3,2.3V54c0,1.3,1.1,2.3,2.3,2.3h7.5v2.4H45.7c-2.3,0-4.3-1.9-4.3-4.3
		V45C41.4,42.9,43.4,41,45.7,41"/>
	<path class="st0" d="M22.5,41H5.1v2.4h6.3V59h4.8V45.7c0-1.3,1.1-2.3,2.3-2.3h3.9L22.5,41C22.4,41,22.5,41,22.5,41z"/>
</g>
</svg>
