<?xml version="1.0" encoding="utf-8"?>
<!-- Generator: Adobe Illustrator 26.5.0, SVG Export Plug-In . SVG Version: 6.00 Build 0)  -->
<svg version="1.1" id="Capa_1" xmlns="http://www.w3.org/2000/svg" xmlns:xlink="http://www.w3.org/1999/xlink" x="0px" y="0px"
	 viewBox="0 0 100 100" style="enable-background:new 0 0 100 100;" xml:space="preserve">
<style type="text/css">
	.st0{fill:#415FFF;}
</style>
<g>
	<path class="st0" d="M81.6,45.2L81.6,45.2h-6.8c-7.1,0-7.7,5.8-7.7,7.5c0,1.8,0.6,7.5,7.7,7.5h6.8c7.1,0,7.7-5.8,7.7-7.5
		C89.3,51,88.7,45.2,81.6,45.2z M81.5,56.8L81.5,56.8h-6.8c-3.9,0-4.2-3.2-4.2-4.1c0-1,0.4-4.1,4.2-4.1h6.8c3.9,0,4.2,3.2,4.2,4.1
		C85.7,53.7,85.3,56.8,81.5,56.8z"/>
	<path class="st0" d="M65.8,45.7h-2.2c-1,0-1.1,0.2-1.5,0.7c-0.4,0.5-6.7,10.1-6.7,10.1c-0.2,0.3-0.4,0.4-0.7,0.4
		c-0.3,0-0.5-0.1-0.7-0.4c0,0-6.3-9.6-6.7-10.1c-0.4-0.5-0.6-0.7-1.5-0.7h-2.2c-0.5,0-0.8,0.4-0.4,0.9l7.5,11.3
		c1.2,1.7,2,2.4,3.9,2.4c1.9,0,2.8-0.7,3.9-2.4l7.5-11.4C66.6,46.1,66.3,45.7,65.8,45.7"/>
	<path class="st0" d="M36.8,46.6c0-0.7,0.3-1,1-1h1.6c0.7,0,1,0.3,1,1v12.7c0,0.7-0.3,1-1,1h-1.6c-0.7,0-1-0.3-1-1V46.6z"/>
	<path class="st0" d="M36.6,42.6c-0.5-0.5-0.5-1,0-1.4l1.1-1.1c0.5-0.5,1-0.5,1.4,0l1.1,1.1c0.5,0.5,0.5,1,0,1.4l-1.1,1.1
		c-0.5,0.5-1,0.5-1.4,0L36.6,42.6L36.6,42.6z"/>
	<path class="st0" d="M33.3,45.7h-2.2c-1,0-1.1,0.2-1.5,0.7c-0.4,0.5-6.7,10.1-6.7,10.1c-0.2,0.3-0.4,0.4-0.7,0.4
		c-0.3,0-0.5-0.1-0.7-0.4c0,0-6.3-9.6-6.7-10.1c-0.4-0.5-0.6-0.7-1.6-0.7h-2.1c-0.6,0-0.8,0.4-0.4,0.9c0.4,0.4,7.4,11.3,7.4,11.3
		c1.2,1.7,2,2.4,3.9,2.4s2.8-0.7,3.9-2.4l7.4-11.4C34,46.1,33.8,45.7,33.3,45.7"/>
</g>
</svg>
