<?xml version="1.0" encoding="utf-8"?>
<!-- Generator: Adobe Illustrator 27.7.0, SVG Export Plug-In . SVG Version: 6.00 Build 0)  -->
<svg version="1.1" id="Capa_1" xmlns="http://www.w3.org/2000/svg" xmlns:xlink="http://www.w3.org/1999/xlink" x="0px" y="0px"
	 viewBox="0 0 150 150" style="enable-background:new 0 0 150 150;" xml:space="preserve">
<style type="text/css">
	.st0{fill:#EA5B0C;}
	.st1{fill:#FFFFFF;}
	.st2{fill:none;}
</style>
<g>
	<g>
		<path class="st0" d="M96.7,53.3c-5.2-5.2-12.6-5.7-21.7-5.7c-9.1,0-16.6,0.6-21.7,5.8C48,58.5,47.5,65.9,47.5,75
			s0.5,16.5,5.7,21.7c5.2,5.2,12.6,5.7,21.7,5.7c9.1,0,16.6-0.5,21.7-5.7c5.2-5.2,5.7-12.6,5.7-21.7
			C102.4,65.9,101.9,58.5,96.7,53.3z M72.9,85.2c0,0.2-0.2,0.3-0.3,0.3h-4.7c-0.2,0-0.3-0.2-0.3-0.3V72.9c0-0.2,0.2-0.3,0.3-0.3h4.7
			c0.2,0,0.3,0.2,0.3,0.3V85.2z M82.1,85.2c0,0.2-0.2,0.3-0.3,0.3h-4.5c-0.2,0-0.3-0.2-0.3-0.3v0V74.6c0-1.8-0.1-3.7-1.1-4.7
			c-0.8-0.8-2.3-1-3.9-1h-8.1c-0.2,0-0.3,0.2-0.3,0.3v14.9v1.1c0,0.2-0.2,0.3-0.3,0.3h-4.5c-0.2,0-0.3-0.2-0.3-0.3V64.8
			c0-0.2,0.2-0.3,0.3-0.3h12.9c3.4,0,6.9,0.2,8.6,1.9c1.7,1.7,1.9,5.3,1.9,8.6V85.2z M91.3,85.2c0,0.2-0.2,0.3-0.3,0.3h-4.5
			c-0.2,0-0.3-0.2-0.3-0.3V64.8c0-0.2,0.2-0.3,0.3-0.3h4.5c0.2,0,0.3,0.2,0.3,0.3V85.2z"/>
		<g>
			<path class="st1" d="M72.6,72.6h-4.7c-0.2,0-0.3,0.2-0.3,0.3v12.2c0,0.2,0.2,0.3,0.3,0.3h4.7c0.2,0,0.3-0.2,0.3-0.3V72.9
				C72.9,72.7,72.8,72.6,72.6,72.6z"/>
			<path class="st1" d="M86.5,85.5h4.5c0.2,0,0.3-0.2,0.3-0.3V64.8c0-0.2-0.2-0.3-0.3-0.3h-4.5c-0.2,0-0.3,0.2-0.3,0.3v20.3
				C86.1,85.4,86.3,85.5,86.5,85.5z"/>
			<path class="st1" d="M58.7,85.5h4.5c0.2,0,0.3-0.2,0.3-0.3v-1.1V69.2c0-0.2,0.2-0.3,0.3-0.3H72c1.6,0,3.1,0.2,3.9,1
				c1,1,1.1,2.8,1.1,4.7v10.5v0c0,0.2,0.2,0.3,0.3,0.3h4.5c0.2,0,0.3-0.2,0.3-0.3V75c0-3.4-0.2-6.9-1.9-8.6
				c-1.7-1.7-5.2-1.9-8.6-1.9H58.7c-0.2,0-0.3,0.2-0.3,0.3v20.3C58.4,85.4,58.6,85.5,58.7,85.5z"/>
		</g>
	</g>
	<g>
		<path class="st2" d="M124.1,53.3c-5.2-5.2-12.6-5.7-21.7-5.7c-9.1,0-16.6,0.6-21.7,5.8C75.5,58.5,75,65.9,75,75s0.5,16.5,5.7,21.7
			c5.2,5.2,12.6,5.7,21.7,5.7c9.1,0,16.6-0.5,21.7-5.7c5.2-5.2,5.7-12.6,5.7-21.7C129.9,65.9,129.3,58.5,124.1,53.3z"/>
	</g>
	<g>
		<path class="st2" d="M69.3,53.3c-5.2-5.2-12.6-5.7-21.7-5.7c-9.1,0-16.6,0.6-21.7,5.8c-5.2,5.2-5.7,12.6-5.7,21.7
			s0.5,16.5,5.7,21.7c5.2,5.2,12.6,5.7,21.7,5.7c9.1,0,16.6-0.5,21.7-5.7C74.5,91.6,75,84.1,75,75C75,65.9,74.5,58.5,69.3,53.3z"/>
	</g>
	<g>
		<path class="st2" d="M96.7,25.8c-5.2-5.2-12.6-5.7-21.7-5.7c-9.1,0-16.6,0.6-21.7,5.8C48,31,47.5,38.5,47.5,47.6
			s0.5,16.5,5.7,21.7C58.4,74.5,65.9,75,75,75c9.1,0,16.6-0.5,21.7-5.7c5.2-5.2,5.7-12.6,5.7-21.7C102.4,38.5,101.9,31,96.7,25.8z"
			/>
	</g>
	<g>
		<path class="st2" d="M96.7,80.7C91.5,75.6,84.1,75,75,75c-9.1,0-16.6,0.6-21.7,5.8c-5.2,5.2-5.7,12.6-5.7,21.7s0.5,16.5,5.7,21.7
			c5.2,5.2,12.6,5.7,21.7,5.7c9.1,0,16.6-0.5,21.7-5.7c5.2-5.2,5.7-12.6,5.7-21.7C102.4,93.4,101.9,85.9,96.7,80.7z"/>
	</g>
</g>
</svg>
