<?xml version="1.0" encoding="utf-8"?>
<!-- Generator: Adobe Illustrator 26.5.0, SVG Export Plug-In . SVG Version: 6.00 Build 0)  -->
<svg version="1.1" id="Capa_1" xmlns="http://www.w3.org/2000/svg" xmlns:xlink="http://www.w3.org/1999/xlink" x="0px" y="0px"
	 viewBox="0 0 100 100" style="enable-background:new 0 0 100 100;" xml:space="preserve">
<style type="text/css">
	.st0{fill:#008ED4;}
</style>
<g>
	<g>
		<path class="st0" d="M61.3,50c0-3.6,0-7.2,0-10.7c0-1.4,0.7-2.1,2.1-2.1c3.7,0,7.5,0,11.2,0c0.8,0,1.3,0.3,1.7,1
			c0.3,0.6,0.3,1.3-0.1,1.9c-0.3,0.5-0.8,0.7-1.4,0.7c-2.5,0-5,0-7.4,0c-1.2,0-1.9,0.7-1.9,1.9c0,1.3,0,2.6,0,3.9
			c0,1,0.8,1.8,1.8,1.8c2.1,0,4.1,0,6.2,0c0.8,0,1.5,0.5,1.7,1.3c0.2,0.8-0.1,1.6-0.8,2c-0.3,0.2-0.7,0.3-1.1,0.3c-2,0-3.9,0-5.9,0
			c-1.2,0-1.9,0.7-1.9,1.9c0,1.3,0,2.6,0,3.9c0,1,0.7,1.7,1.7,1.7c2.5,0,5.1,0,7.6,0c1.3,0,2.1,1.2,1.7,2.3
			c-0.2,0.7-0.9,1.2-1.7,1.2c-1.3,0-2.6,0-3.9,0c-2.5,0-5,0-7.4,0c-1.3,0-2-0.7-2-2C61.3,57.2,61.3,53.6,61.3,50z"/>
		<path class="st0" d="M32.4,62.9c-2.4,0-4.8,0-7.2,0c-1,0-1.7-0.6-1.8-1.6c-0.1-0.5,0.1-0.9,0.3-1.3c1.5-2.4,3.1-4.8,4.6-7.2
			c2.1-3.2,4.1-6.5,6.2-9.8c0.1-0.1,0.2-0.3,0.3-0.5c0.4-0.9-0.1-1.8-1.1-1.8c-1,0-1.9,0-2.8,0c-1.6,0-3.2,0-4.8,0
			c-1.1,0-1.9-0.7-1.9-1.7c0-1,0.8-1.8,1.9-1.8c4.5,0,8.9,0,13.4,0c0.8,0,1.4,0.3,1.7,1c0.3,0.7,0.3,1.3-0.1,1.9
			c-3.4,5.4-6.9,10.8-10.4,16.2c-0.2,0.3-0.5,0.7-0.7,1c-0.3,0.4-0.3,0.9-0.1,1.3c0.2,0.4,0.6,0.6,1.1,0.6c2.8,0,5.7,0,8.5,0
			c1.2,0,2.1,1,1.8,2.3c-0.2,0.8-0.9,1.3-1.8,1.3c-2.3,0-4.5,0-6.8,0C32.6,62.9,32.5,62.9,32.4,62.9z"/>
		<path class="st0" d="M53.4,51.7c0,3,0,6.1,0,9.1c0,1.2-0.8,2.1-1.9,2.1c-1,0-1.9-0.8-2-1.8c0-0.1,0-0.3,0-0.4c0-6,0-12,0-17.9
			c0-1-0.8-2.1-2-2c-1,0.1-1.9,0-2.8,0c-1,0-1.9-0.8-1.9-1.7c0-1,0.8-1.8,1.9-1.8c4.5,0,9,0,13.6,0c1,0,1.7,0.7,1.9,1.5
			c0.1,1-0.5,1.8-1.4,2c-0.1,0-0.3,0.1-0.5,0.1c-1,0-2,0-3,0c-1,0-1.8,0.8-1.8,1.8C53.4,45.5,53.4,48.6,53.4,51.7z"/>
	</g>
</g>
</svg>
